<svg width="35" height="33" viewBox="0 0 35 33" fill="none" xmlns="http://www.w3.org/2000/svg">
<ellipse cx="17.5" cy="16.5" rx="17.5" ry="16.5" fill="#5F357C"/>
<path d="M19.9414 29C19.5517 29 19.1911 28.9735 18.8593 28.9205C18.5329 28.8718 18.2723 28.8144 18.0774 28.7481L18.7409 26.8788C19.1568 26.9804 19.528 27.029 19.8545 27.0246C20.1809 27.0202 20.4679 26.934 20.7154 26.7661C20.9681 26.6026 21.1814 26.3286 21.3551 25.9441L21.5999 25.3939L17.4766 15.1426L20.7263 15L23.0295 22.6894H23.1559L25.9596 15H29.0004L24.1431 26.4148C23.9167 26.9539 23.6166 27.4157 23.2427 27.8002C22.8689 28.1891 22.4108 28.4852 21.8685 28.6884C21.3314 28.8961 20.689 29 19.9414 29Z" fill="white"/>
<path d="M14.1097 19C12.642 19 11.3745 18.7175 10.3071 18.1526C9.24601 17.5818 8.42957 16.7755 7.85774 15.7339C7.28591 14.6864 7 13.4536 7 12.0353C7 10.6406 7.28591 9.41656 7.85774 8.36318C8.43592 7.30391 9.24284 6.48003 10.2785 5.89155C11.3141 5.29718 12.5309 5 13.9287 5C14.8309 5 15.6823 5.13535 16.4828 5.40605C17.2897 5.67087 18.0013 6.08281 18.6176 6.64187C19.2403 7.20092 19.7295 7.91299 20.0853 8.77806C20.4411 9.63724 20.619 10.6612 20.619 11.8499V12.8298H8.62018V10.6759H17.312C17.3056 10.0639 17.1627 9.51955 16.8831 9.04287C16.6035 8.56032 16.2128 8.18075 15.7109 7.90416C15.2153 7.62757 14.6371 7.48928 13.9763 7.48928C13.2711 7.48928 12.6516 7.64817 12.1179 7.96595C11.5842 8.27785 11.168 8.68979 10.8694 9.20176C10.5771 9.70786 10.4278 10.264 10.4214 10.8701V12.7503C10.4214 13.5389 10.5771 14.2156 10.8884 14.7806C11.1998 15.3396 11.635 15.7692 12.1941 16.0694C12.7532 16.3636 13.4077 16.5107 14.1574 16.5107C14.6593 16.5107 15.1136 16.446 15.5202 16.3165C15.9269 16.1812 16.2795 15.984 16.5781 15.7251C16.8767 15.4662 17.1023 15.1454 17.2548 14.7629L20.4895 15.2583C20.2862 16.0468 19.8852 16.5755 19.3134 17.1639C18.7479 17.7465 18.0236 18.1997 17.1404 18.5233C16.2573 18.8411 15.247 19 14.1097 19Z" fill="white"/>
</svg>
